<svg xmlns="http://www.w3.org/2000/svg" viewBox="0 0 375 225"><defs><g/><clipPath id="20b95ec025"><path d="M 114 47 L 238.332031 47 L 238.332031 117.941406 L 114 117.941406 Z M 114 47 " clip-rule="nonzero"/></clipPath><clipPath id="6438917143"><path d="M 98.777344 13.960938 L 236 13.960938 L 236 49 L 98.777344 49 Z M 98.777344 13.960938 " clip-rule="nonzero"/></clipPath></defs><g clip-path="url(#20b95ec025)"><path fill="currentColor" d="M 238.339844 65.644531 L 195.320312 65.644531 L 195.320312 82.632812 L 217.152344 82.632812 C 211.226562 93.53125 199.6875 100.941406 186.457031 100.941406 C 167.195312 100.941406 151.527344 85.242188 151.527344 65.945312 C 151.527344 59.363281 153.351562 53.199219 156.515625 47.9375 L 114.90625 47.9375 C 114.90625 57.316406 122.496094 64.925781 131.863281 64.925781 L 134.582031 64.925781 C 134.574219 65.261719 134.574219 65.601562 134.574219 65.945312 C 134.574219 72.957031 135.945312 79.765625 138.652344 86.183594 C 141.265625 92.375 145.007812 97.933594 149.769531 102.703125 C 154.53125 107.476562 160.078125 111.222656 166.257812 113.839844 C 172.660156 116.554688 179.457031 117.929688 186.457031 117.929688 C 193.457031 117.929688 200.253906 116.554688 206.65625 113.839844 C 212.832031 111.222656 218.382812 107.476562 223.144531 102.703125 C 227.90625 97.933594 231.644531 92.375 234.257812 86.183594 C 236.964844 79.765625 238.339844 72.957031 238.339844 65.945312 C 238.339844 65.84375 238.339844 65.746094 238.339844 65.644531 " fill-opacity="1" fill-rule="nonzero"/></g><g clip-path="url(#6438917143)"><path fill="currentColor" d="M 148.089844 30.945312 L 186.457031 30.945312 C 199.445312 30.945312 210.800781 38.085938 216.816406 48.65625 L 235.398438 48.65625 C 235.050781 47.664062 234.671875 46.679688 234.257812 45.707031 C 231.644531 39.515625 227.90625 33.953125 223.144531 29.183594 C 218.382812 24.414062 212.832031 20.664062 206.65625 18.046875 C 200.253906 15.332031 193.457031 13.957031 186.457031 13.957031 L 98.78125 13.957031 C 98.78125 23.339844 106.375 30.945312 115.738281 30.945312 L 148.089844 30.945312 " fill-opacity="1" fill-rule="nonzero"/></g><g fill="currentColor" fill-opacity="1"><g transform="translate(29.458081, 177.964413)"><g><path d="M 21.34375 -23.71875 L 38.09375 -23.71875 L 38.09375 -1.8125 C 35.382812 -0.925781 32.828125 -0.304688 30.421875 0.046875 C 28.023438 0.398438 25.578125 0.578125 23.078125 0.578125 C 16.703125 0.578125 11.832031 -1.289062 8.46875 -5.03125 C 5.113281 -8.78125 3.4375 -14.160156 3.4375 -21.171875 C 3.4375 -27.984375 5.382812 -33.296875 9.28125 -37.109375 C 13.1875 -40.929688 18.59375 -42.84375 25.5 -42.84375 C 29.832031 -42.84375 34.015625 -41.972656 38.046875 -40.234375 L 35.0625 -33.078125 C 31.976562 -34.617188 28.773438 -35.390625 25.453125 -35.390625 C 21.578125 -35.390625 18.472656 -34.085938 16.140625 -31.484375 C 13.816406 -28.878906 12.65625 -25.382812 12.65625 -21 C 12.65625 -16.414062 13.59375 -12.914062 15.46875 -10.5 C 17.34375 -8.082031 20.070312 -6.875 23.65625 -6.875 C 25.519531 -6.875 27.414062 -7.066406 29.34375 -7.453125 L 29.34375 -16.265625 L 21.34375 -16.265625 Z M 21.34375 -23.71875 "/></g></g></g><g fill="currentColor" fill-opacity="1"><g transform="translate(78.14819, 177.964413)"><g><path d="M 43.640625 -21.171875 C 43.640625 -14.179688 41.90625 -8.804688 38.4375 -5.046875 C 34.976562 -1.296875 30.015625 0.578125 23.546875 0.578125 C 17.066406 0.578125 12.09375 -1.296875 8.625 -5.046875 C 5.164062 -8.804688 3.4375 -14.203125 3.4375 -21.234375 C 3.4375 -28.253906 5.171875 -33.617188 8.640625 -37.328125 C 12.117188 -41.035156 17.101562 -42.890625 23.59375 -42.890625 C 30.082031 -42.890625 35.046875 -41.019531 38.484375 -37.28125 C 41.921875 -33.550781 43.640625 -28.179688 43.640625 -21.171875 Z M 12.828125 -21.171875 C 12.828125 -16.453125 13.722656 -12.898438 15.515625 -10.515625 C 17.304688 -8.128906 19.984375 -6.9375 23.546875 -6.9375 C 30.679688 -6.9375 34.25 -11.679688 34.25 -21.171875 C 34.25 -30.679688 30.695312 -35.4375 23.59375 -35.4375 C 20.03125 -35.4375 17.34375 -34.238281 15.53125 -31.84375 C 13.726562 -29.445312 12.828125 -25.890625 12.828125 -21.171875 Z M 12.828125 -21.171875 "/></g></g></g><g fill="currentColor" fill-opacity="1"><g transform="translate(131.084024, 177.964413)"><g><path d="M 5.3125 0 L 5.3125 -42.234375 L 14.265625 -42.234375 L 14.265625 -7.390625 L 31.390625 -7.390625 L 31.390625 0 Z M 5.3125 0 "/></g></g></g><g fill="currentColor" fill-opacity="1"><g transform="translate(170.358419, 177.964413)"><g><path d="M 40.359375 -21.515625 C 40.359375 -14.566406 38.378906 -9.242188 34.421875 -5.546875 C 30.460938 -1.847656 24.742188 0 17.265625 0 L 5.3125 0 L 5.3125 -42.234375 L 18.578125 -42.234375 C 25.460938 -42.234375 30.8125 -40.410156 34.625 -36.765625 C 38.445312 -33.128906 40.359375 -28.046875 40.359375 -21.515625 Z M 31.046875 -21.28125 C 31.046875 -30.351562 27.039062 -34.890625 19.03125 -34.890625 L 14.265625 -34.890625 L 14.265625 -7.390625 L 18.109375 -7.390625 C 26.734375 -7.390625 31.046875 -12.019531 31.046875 -21.28125 Z M 31.046875 -21.28125 "/></g></g></g><g fill="currentColor" fill-opacity="1"><g transform="translate(220.001642, 177.964413)"><g><path d="M 29.640625 0 L 5.3125 0 L 5.3125 -42.234375 L 29.640625 -42.234375 L 29.640625 -34.890625 L 14.265625 -34.890625 L 14.265625 -25.625 L 28.5625 -25.625 L 28.5625 -18.28125 L 14.265625 -18.28125 L 14.265625 -7.390625 L 29.640625 -7.390625 Z M 29.640625 0 "/></g></g></g><g fill="currentColor" fill-opacity="1"><g transform="translate(258.987211, 177.964413)"><g><path d="M 42.78125 0 L 31.390625 0 L 13.03125 -31.953125 L 12.765625 -31.953125 C 13.128906 -26.304688 13.3125 -22.28125 13.3125 -19.875 L 13.3125 0 L 5.3125 0 L 5.3125 -42.234375 L 16.609375 -42.234375 L 34.953125 -10.59375 L 35.15625 -10.59375 C 34.863281 -16.082031 34.71875 -19.960938 34.71875 -22.234375 L 34.71875 -42.234375 L 42.78125 -42.234375 Z M 42.78125 0 "/></g></g></g><g fill="currentColor" fill-opacity="1"><g transform="translate(312.933947, 177.964413)"><g><path d="M 30.25 -11.734375 C 30.25 -7.921875 28.875 -4.914062 26.125 -2.71875 C 23.382812 -0.519531 19.566406 0.578125 14.671875 0.578125 C 10.171875 0.578125 6.1875 -0.269531 2.71875 -1.96875 L 2.71875 -10.28125 C 5.5625 -9.007812 7.96875 -8.113281 9.9375 -7.59375 C 11.914062 -7.070312 13.722656 -6.8125 15.359375 -6.8125 C 17.328125 -6.8125 18.835938 -7.1875 19.890625 -7.9375 C 20.941406 -8.6875 21.46875 -9.804688 21.46875 -11.296875 C 21.46875 -12.117188 21.234375 -12.851562 20.765625 -13.5 C 20.304688 -14.144531 19.628906 -14.765625 18.734375 -15.359375 C 17.835938 -15.960938 16.015625 -16.914062 13.265625 -18.21875 C 10.679688 -19.4375 8.742188 -20.601562 7.453125 -21.71875 C 6.160156 -22.832031 5.128906 -24.128906 4.359375 -25.609375 C 3.585938 -27.097656 3.203125 -28.832031 3.203125 -30.8125 C 3.203125 -34.550781 4.46875 -37.488281 7 -39.625 C 9.53125 -41.769531 13.03125 -42.84375 17.5 -42.84375 C 19.695312 -42.84375 21.789062 -42.582031 23.78125 -42.0625 C 25.78125 -41.539062 27.867188 -40.804688 30.046875 -39.859375 L 27.15625 -32.90625 C 24.894531 -33.820312 23.03125 -34.460938 21.5625 -34.828125 C 20.09375 -35.203125 18.644531 -35.390625 17.21875 -35.390625 C 15.519531 -35.390625 14.21875 -34.992188 13.3125 -34.203125 C 12.40625 -33.410156 11.953125 -32.378906 11.953125 -31.109375 C 11.953125 -30.316406 12.132812 -29.625 12.5 -29.03125 C 12.875 -28.445312 13.457031 -27.878906 14.25 -27.328125 C 15.050781 -26.785156 16.945312 -25.800781 19.9375 -24.375 C 23.882812 -22.488281 26.585938 -20.597656 28.046875 -18.703125 C 29.515625 -16.804688 30.25 -14.484375 30.25 -11.734375 Z M 30.25 -11.734375 "/></g></g></g><g fill="#ffffff" fill-opacity="1"><g transform="translate(71.730662, 206.340179)"><g><path d="M 1.921875 0 L 1.921875 -15.265625 L 5.15625 -15.265625 L 5.15625 0 Z M 1.921875 0 "/></g></g></g><g fill="#ffffff" fill-opacity="1"><g transform="translate(89.383256, 206.340179)"><g><path d="M 15.46875 0 L 11.359375 0 L 4.703125 -11.546875 L 4.609375 -11.546875 C 4.742188 -9.503906 4.8125 -8.050781 4.8125 -7.1875 L 4.8125 0 L 1.921875 0 L 1.921875 -15.265625 L 6 -15.265625 L 12.640625 -3.828125 L 12.71875 -3.828125 C 12.601562 -5.816406 12.546875 -7.222656 12.546875 -8.046875 L 12.546875 -15.265625 L 15.46875 -15.265625 Z M 15.46875 0 "/></g></g></g><g fill="#ffffff" fill-opacity="1"><g transform="translate(117.338375, 206.340179)"><g><path d="M 10.625 -15.265625 L 13.90625 -15.265625 L 8.703125 0 L 5.1875 0 L 0 -15.265625 L 3.265625 -15.265625 L 6.140625 -6.1875 C 6.296875 -5.644531 6.457031 -5.015625 6.625 -4.296875 C 6.800781 -3.585938 6.910156 -3.09375 6.953125 -2.8125 C 7.035156 -3.457031 7.296875 -4.582031 7.734375 -6.1875 Z M 10.625 -15.265625 "/></g></g></g><g fill="#ffffff" fill-opacity="1"><g transform="translate(141.807127, 206.340179)"><g><path d="M 10.71875 0 L 1.921875 0 L 1.921875 -15.265625 L 10.71875 -15.265625 L 10.71875 -12.609375 L 5.15625 -12.609375 L 5.15625 -9.265625 L 10.328125 -9.265625 L 10.328125 -6.609375 L 5.15625 -6.609375 L 5.15625 -2.671875 L 10.71875 -2.671875 Z M 10.71875 0 "/></g></g></g><g fill="#ffffff" fill-opacity="1"><g transform="translate(164.355247, 206.340179)"><g><path d="M 10.9375 -4.234375 C 10.9375 -2.859375 10.4375 -1.773438 9.4375 -0.984375 C 8.445312 -0.191406 7.070312 0.203125 5.3125 0.203125 C 3.675781 0.203125 2.234375 -0.0976562 0.984375 -0.703125 L 0.984375 -3.71875 C 2.015625 -3.257812 2.882812 -2.9375 3.59375 -2.75 C 4.3125 -2.5625 4.96875 -2.46875 5.5625 -2.46875 C 6.269531 -2.46875 6.8125 -2.601562 7.1875 -2.875 C 7.570312 -3.144531 7.765625 -3.546875 7.765625 -4.078125 C 7.765625 -4.378906 7.679688 -4.644531 7.515625 -4.875 C 7.347656 -5.113281 7.097656 -5.335938 6.765625 -5.546875 C 6.441406 -5.765625 5.785156 -6.113281 4.796875 -6.59375 C 3.859375 -7.03125 3.15625 -7.445312 2.6875 -7.84375 C 2.226562 -8.25 1.859375 -8.71875 1.578125 -9.25 C 1.296875 -9.789062 1.15625 -10.421875 1.15625 -11.140625 C 1.15625 -12.492188 1.613281 -13.554688 2.53125 -14.328125 C 3.445312 -15.097656 4.710938 -15.484375 6.328125 -15.484375 C 7.117188 -15.484375 7.875 -15.390625 8.59375 -15.203125 C 9.320312 -15.015625 10.078125 -14.75 10.859375 -14.40625 L 9.8125 -11.890625 C 9 -12.222656 8.328125 -12.457031 7.796875 -12.59375 C 7.265625 -12.726562 6.738281 -12.796875 6.21875 -12.796875 C 5.613281 -12.796875 5.144531 -12.648438 4.8125 -12.359375 C 4.488281 -12.078125 4.328125 -11.707031 4.328125 -11.25 C 4.328125 -10.96875 4.390625 -10.71875 4.515625 -10.5 C 4.648438 -10.289062 4.863281 -10.085938 5.15625 -9.890625 C 5.445312 -9.691406 6.128906 -9.332031 7.203125 -8.8125 C 8.628906 -8.132812 9.609375 -7.453125 10.140625 -6.765625 C 10.671875 -6.078125 10.9375 -5.234375 10.9375 -4.234375 Z M 10.9375 -4.234375 "/></g></g></g><g fill="#ffffff" fill-opacity="1"><g transform="translate(186.705046, 206.340179)"><g><path d="M 7.8125 0 L 4.578125 0 L 4.578125 -12.578125 L 0.421875 -12.578125 L 0.421875 -15.265625 L 11.953125 -15.265625 L 11.953125 -12.578125 L 7.8125 -12.578125 Z M 7.8125 0 "/></g></g></g><g fill="#ffffff" fill-opacity="1"><g transform="translate(209.660262, 206.340179)"><g><path d="M 8.390625 0 L 4.703125 -11.984375 L 4.609375 -11.984375 C 4.742188 -9.546875 4.8125 -7.921875 4.8125 -7.109375 L 4.8125 0 L 1.921875 0 L 1.921875 -15.265625 L 6.328125 -15.265625 L 9.9375 -3.59375 L 10 -3.59375 L 13.84375 -15.265625 L 18.25 -15.265625 L 18.25 0 L 15.234375 0 L 15.234375 -7.234375 C 15.234375 -7.566406 15.238281 -7.957031 15.25 -8.40625 C 15.257812 -8.851562 15.304688 -10.035156 15.390625 -11.953125 L 15.296875 -11.953125 L 11.359375 0 Z M 8.390625 0 "/></g></g></g><g fill="#ffffff" fill-opacity="1"><g transform="translate(240.391953, 206.340179)"><g><path d="M 10.71875 0 L 1.921875 0 L 1.921875 -15.265625 L 10.71875 -15.265625 L 10.71875 -12.609375 L 5.15625 -12.609375 L 5.15625 -9.265625 L 10.328125 -9.265625 L 10.328125 -6.609375 L 5.15625 -6.609375 L 5.15625 -2.671875 L 10.71875 -2.671875 Z M 10.71875 0 "/></g></g></g><g fill="#ffffff" fill-opacity="1"><g transform="translate(262.940079, 206.340179)"><g><path d="M 15.46875 0 L 11.359375 0 L 4.703125 -11.546875 L 4.609375 -11.546875 C 4.742188 -9.503906 4.8125 -8.050781 4.8125 -7.1875 L 4.8125 0 L 1.921875 0 L 1.921875 -15.265625 L 6 -15.265625 L 12.640625 -3.828125 L 12.71875 -3.828125 C 12.601562 -5.816406 12.546875 -7.222656 12.546875 -8.046875 L 12.546875 -15.265625 L 15.46875 -15.265625 Z M 15.46875 0 "/></g></g></g><g fill="#ffffff" fill-opacity="1"><g transform="translate(290.895203, 206.340179)"><g><path d="M 7.8125 0 L 4.578125 0 L 4.578125 -12.578125 L 0.421875 -12.578125 L 0.421875 -15.265625 L 11.953125 -15.265625 L 11.953125 -12.578125 L 7.8125 -12.578125 Z M 7.8125 0 "/></g></g></g></svg>